<?xml version="1.0" standalone="no"?>
<!DOCTYPE svg PUBLIC "-//W3C//DTD SVG 20010904//EN"
 "http://www.w3.org/TR/2001/REC-SVG-20010904/DTD/svg10.dtd">
<svg version="1.0" xmlns="http://www.w3.org/2000/svg"
 width="1280.000000pt" height="701.000000pt" viewBox="0 0 1280.000000 701.000000"
 preserveAspectRatio="xMidYMid meet">
<g transform="translate(0.000000,701.000000) scale(0.100000,-0.100000)"
fill="#000000" stroke="none">
<path d="M9913 6972 c-9 -20 -18 -61 -21 -90 -3 -34 -10 -56 -19 -59 -8 -3
-45 16 -84 42 -85 60 -86 60 -202 -74 -122 -140 -155 -187 -163 -229 -4 -20
-12 -40 -18 -44 -6 -4 -67 -8 -136 -8 -85 0 -130 -4 -138 -12 -17 -17 -15 -68
5 -90 12 -13 18 -45 22 -119 5 -81 9 -102 24 -110 21 -12 25 -107 4 -115 -22
-8 -65 13 -118 57 -39 34 -51 39 -63 30 -8 -6 -20 -10 -27 -9 -11 2 -14 -13
-14 -67 0 -38 -4 -77 -10 -85 -5 -8 -15 -24 -20 -35 -6 -11 -31 -31 -55 -44
-87 -46 -90 -49 -81 -73 5 -14 4 -30 -2 -39 -14 -23 8 -74 44 -100 16 -11 29
-24 29 -29 0 -5 -13 -25 -30 -43 -16 -19 -30 -44 -30 -56 0 -11 -11 -28 -25
-37 -21 -14 -28 -14 -41 -3 -8 7 -13 21 -11 31 3 11 -2 22 -14 29 -11 6 -36
36 -56 67 -53 85 -80 110 -167 154 -159 80 -619 209 -939 262 -54 9 -121 25
-150 36 -144 54 -334 78 -692 87 -164 4 -196 3 -230 -12 -22 -9 -101 -38 -175
-65 -493 -178 -832 -412 -918 -635 -10 -28 -32 -105 -47 -173 l-29 -123 -40 6
c-23 3 -135 10 -251 15 -316 16 -457 34 -691 90 -282 67 -817 238 -973 310
-69 33 -97 41 -118 36 -15 -4 -49 -11 -75 -15 -27 -4 -70 -23 -103 -44 -42
-29 -60 -35 -73 -28 -24 13 -71 108 -74 151 -3 32 0 35 25 38 49 6 62 83 27
152 -31 60 -76 107 -159 163 -90 61 -133 76 -261 86 -81 7 -366 55 -1050 175
-79 15 -179 26 -222 26 -43 0 -157 14 -255 31 -186 32 -353 50 -353 38 0 -10
131 -129 141 -129 5 0 14 -11 21 -25 18 -33 158 -158 293 -260 117 -88 543
-373 696 -465 125 -75 169 -108 169 -125 0 -14 -27 -29 -528 -290 -248 -128
-288 -146 -315 -140 -18 4 -108 10 -202 15 -156 8 -290 26 -468 63 -40 9 -90
28 -120 48 -45 28 -63 33 -132 37 -137 7 -203 -25 -208 -103 l-2 -39 135 -42
c74 -23 146 -45 160 -47 l26 -6 -4 -100 -4 -99 41 -21 c56 -29 65 -50 45 -101
-22 -55 -94 -104 -140 -95 -30 5 -36 2 -64 -36 -41 -57 -39 -80 10 -113 22
-14 40 -31 40 -37 0 -15 -68 -135 -84 -148 -8 -7 -20 -10 -27 -9 -10 2 -13 -7
-11 -34 5 -68 -39 -128 -94 -128 l-35 0 22 -30 c19 -26 21 -33 10 -56 -14 -33
-11 -37 21 -25 17 6 47 48 96 134 87 151 137 201 238 236 96 34 343 158 377
190 16 14 44 55 63 91 72 140 131 190 220 190 34 0 52 8 105 49 46 35 76 50
107 54 24 3 51 12 61 21 12 11 27 14 49 10 38 -8 62 9 62 42 0 16 8 28 23 34
12 5 155 50 317 100 162 50 361 111 441 137 l147 46 75 -42 c43 -23 88 -41
106 -41 20 0 70 -22 139 -61 59 -34 213 -116 342 -182 257 -131 260 -133 260
-154 0 -21 -158 -375 -175 -392 -11 -12 -22 -6 -70 40 -31 30 -66 71 -77 92
-24 47 -42 43 -46 -9 -3 -36 4 -48 63 -123 36 -45 65 -86 65 -91 0 -4 -11 -15
-25 -24 -22 -15 -24 -21 -19 -56 5 -32 3 -41 -10 -46 -27 -10 -94 14 -128 47
-17 16 -39 29 -48 29 -14 0 -114 106 -163 174 -10 14 -16 16 -21 7 -15 -23 4
-60 74 -145 77 -93 85 -113 42 -100 -15 4 -40 7 -56 6 -15 -1 -42 6 -58 14
-16 9 -31 14 -33 12 -1 -2 -5 -21 -8 -43 -6 -38 -2 -47 64 -144 62 -91 69
-106 56 -118 -11 -11 -20 -12 -34 -5 -32 17 -219 42 -368 48 -334 15 -690 -65
-975 -219 -286 -154 -544 -382 -705 -623 -91 -135 -198 -356 -249 -511 -155
-475 -120 -991 98 -1438 169 -348 379 -577 781 -850 75 -51 203 -110 312 -144
165 -51 204 -61 233 -61 15 0 46 -7 69 -15 47 -16 277 -45 363 -45 101 0 331
30 418 54 47 13 119 32 160 41 125 29 200 55 305 105 298 143 608 414 777 680
103 163 196 371 248 555 26 95 29 100 53 97 14 -1 58 -20 99 -41 59 -31 74
-44 80 -67 16 -72 31 -162 32 -201 1 -40 -2 -44 -94 -125 -52 -46 -96 -93 -98
-103 -2 -11 -13 -29 -23 -41 -11 -11 -16 -24 -12 -27 3 -4 88 -7 187 -7 100
-1 226 -5 281 -10 105 -10 1502 -13 1900 -5 149 4 351 -1 575 -12 417 -22
1912 -25 1932 -5 8 8 -4 45 -49 144 -145 320 -192 476 -200 670 -5 120 -3 146
15 215 12 43 29 114 38 157 10 51 33 113 63 170 54 106 146 236 167 236 18 0
18 -2 -6 -85 -54 -182 -62 -242 -67 -481 -6 -246 6 -376 45 -487 10 -29 35
-104 56 -167 53 -160 109 -273 206 -415 30 -44 65 -97 77 -118 31 -53 153
-186 253 -274 226 -200 545 -356 842 -412 197 -37 236 -41 404 -41 187 0 220
5 449 62 88 22 178 44 200 48 46 10 202 75 225 95 8 7 53 36 100 63 130 76
252 176 385 313 183 190 305 377 395 606 65 165 97 298 130 550 39 286 -78
773 -257 1074 -189 318 -493 597 -820 751 -125 59 -124 67 7 92 46 9 86 19 88
21 10 10 -191 78 -338 114 -232 57 -512 82 -715 63 -168 -15 -166 -5 21 100
233 132 390 208 430 208 47 0 74 16 74 43 0 30 -8 39 -62 70 -26 15 -54 37
-63 49 -16 24 -20 64 -7 72 4 2 86 7 181 11 96 3 181 10 190 14 9 4 52 14 96
21 110 18 125 24 125 55 0 18 -7 28 -25 35 -24 9 -28 18 -40 95 -19 118 -122
294 -280 480 -74 87 -104 130 -97 137 7 7 37 -13 96 -66 47 -42 87 -76 90 -76
4 0 6 9 6 20 0 53 -153 302 -240 389 -25 26 -97 107 -161 181 -161 187 -349
380 -553 570 l-174 160 -4 51 c-1 28 2 60 9 72 7 12 12 45 13 73 0 39 -7 61
-30 97 -69 110 -196 203 -383 281 l-38 15 -16 -37z m-283 -649 c143 -101 166
-128 184 -210 9 -40 10 -41 141 -98 145 -64 155 -71 155 -107 0 -43 -14 -65
-97 -146 -40 -40 -73 -77 -73 -82 0 -6 6 -29 13 -52 9 -31 20 -44 44 -54 18
-8 37 -23 43 -34 7 -14 21 -20 44 -20 21 0 36 -6 40 -15 3 -9 11 -15 18 -14
50 6 52 -25 3 -48 -32 -16 -41 -15 -157 5 -68 12 -141 23 -163 25 -37 2 -42 6
-62 47 -28 56 -46 117 -45 151 0 15 21 57 46 93 57 84 74 138 51 172 -27 42
-77 30 -147 -34 -29 -27 -30 -26 -42 28 -3 14 -15 40 -26 59 -22 34 -26 35
-114 19 -16 -2 -22 8 -36 62 -9 36 -20 73 -24 82 -5 11 0 24 14 38 21 21 22
28 15 116 -7 97 -4 114 22 114 8 0 77 -44 153 -97z m133 -429 c10 -10 -54
-124 -68 -124 -15 0 -25 22 -25 55 0 17 12 32 37 50 40 27 46 29 56 19z
m-7706 -633 c78 -48 67 -69 -49 -106 l-80 -25 -45 26 c-78 45 -71 74 28 116
70 30 83 29 146 -11z m-280 -123 c34 -32 29 -46 -24 -69 -78 -34 -105 -35
-139 -6 -36 32 -28 52 37 85 51 27 91 23 126 -10z m-272 -102 c29 -21 12 -39
-55 -60 -55 -17 -63 -17 -77 -3 -14 14 -12 18 23 40 65 40 81 44 109 23z
m1905 -376 c0 -28 -128 -343 -160 -393 -32 -51 -44 -57 -59 -28 -14 25 -6 49
74 221 37 80 74 163 81 185 8 21 20 42 26 47 16 9 38 -10 38 -32z m130 -35
c17 -9 30 -23 30 -33 -1 -21 -128 -158 -137 -148 -8 7 43 162 60 184 12 15 12
15 47 -3z m266 -130 c20 -14 50 -25 66 -25 20 0 66 -23 136 -69 148 -97 269
-152 619 -280 479 -177 487 -181 467 -238 -9 -28 -11 -28 -89 -28 -68 0 -85
-4 -113 -23 -42 -30 -62 -70 -62 -122 0 -79 46 -136 125 -155 35 -8 45 -20 45
-58 0 -19 7 -31 25 -39 23 -10 36 -48 16 -48 -17 0 -21 -32 -6 -53 8 -12 15
-25 15 -29 0 -16 -72 -78 -90 -78 -10 0 -40 22 -67 49 -57 56 -85 72 -265 145
-176 71 -295 131 -308 156 -6 11 -27 27 -47 35 -20 8 -70 45 -111 81 -107 93
-137 111 -222 129 -95 20 -143 14 -242 -32 l-78 -36 -87 41 c-49 22 -133 59
-188 82 -55 22 -104 45 -108 49 -10 10 -3 19 286 333 120 131 225 238 232 238
8 0 31 -11 51 -25z m159 -739 c60 -28 240 -185 228 -197 -8 -8 -61 8 -241 75
-24 8 -55 22 -70 31 -15 8 -53 26 -84 39 -32 14 -58 30 -58 36 0 19 62 39 120
40 37 0 71 -8 105 -24z m-1425 -632 c153 -38 268 -91 245 -112 -12 -11 -451
-66 -463 -58 -5 3 -14 36 -22 74 -11 61 -11 72 4 101 l17 33 62 -7 c34 -4 105
-18 157 -31z m8606 -69 c249 -52 463 -171 642 -358 128 -135 194 -249 178
-311 -7 -27 -121 -116 -149 -116 -8 0 -28 21 -43 48 -108 186 -339 394 -514
463 -71 28 -88 44 -100 90 -6 20 -35 69 -66 108 -50 65 -60 91 -33 91 5 0 43
-7 85 -15z m-8206 -157 c0 -7 -16 -24 -36 -37 -32 -22 -36 -23 -51 -9 -8 9
-12 21 -8 28 16 26 95 41 95 18z m-806 -76 c12 -20 -17 -34 -90 -43 -43 -5
-94 -14 -112 -20 -31 -10 -57 -40 -45 -52 3 -4 0 -13 -7 -22 -9 -11 -17 -12
-32 -4 -30 16 -45 -3 -28 -36 12 -23 11 -28 -12 -53 -14 -15 -29 -44 -32 -64
-4 -20 -22 -56 -41 -78 -19 -23 -35 -47 -35 -54 0 -7 -18 -32 -39 -55 -37 -40
-42 -42 -83 -37 -23 3 -104 11 -178 17 -215 17 -260 33 -260 90 0 48 102 223
193 331 48 58 67 66 89 39 13 -17 27 -21 70 -20 39 0 582 59 630 68 4 0 9 -3
12 -7z m649 -4 c11 -33 -27 -51 -62 -29 -12 8 -12 12 -2 25 16 19 58 21 64 4z
m7328 -170 c48 -25 79 -48 79 -58 0 -9 -20 -35 -44 -59 l-44 -43 -58 7 c-33 4
-66 9 -76 11 -40 11 -27 123 18 160 16 13 33 23 38 24 5 0 44 -19 87 -42z
m1078 -121 c88 -33 115 -57 93 -79 -10 -10 -17 -10 -34 1 -12 7 -53 29 -92 48
-84 42 -80 39 -71 52 8 15 8 15 104 -22z m-10 -105 c43 -21 48 -35 22 -61 -33
-33 -64 -27 -84 14 -9 20 -17 42 -17 50 0 20 36 18 79 -3z m-1317 -92 c42 -87
44 -98 13 -110 -29 -11 -100 12 -109 36 -5 14 13 74 34 114 17 31 32 21 62
-40z m1398 -8 c0 -23 -45 -66 -59 -57 -15 9 -14 27 5 53 19 27 54 30 54 4z
m241 -22 c24 -13 81 -124 73 -144 -7 -18 -29 -27 -46 -20 -17 8 -98 130 -98
148 0 13 14 21 43 25 5 0 17 -4 28 -9z m-184 -46 c8 -21 -13 -64 -32 -64 -24
0 -29 27 -11 55 19 29 34 32 43 9z m109 -32 c18 -11 34 -48 34 -76 0 -30 -24
-39 -91 -34 -42 3 -44 5 -47 35 -5 55 62 103 104 75z m638 -14 c27 -43 50
-214 50 -368 0 -137 -3 -152 -38 -275 -20 -71 -54 -166 -75 -210 -42 -86 -135
-222 -201 -294 -37 -40 -43 -43 -77 -38 -39 7 -124 54 -130 74 -2 6 21 39 52
73 110 119 191 272 237 443 31 119 31 297 -1 430 -27 114 -26 118 62 162 64
32 102 32 121 3z m-10681 -77 c45 -11 93 -24 107 -29 l25 -9 0 -159 c0 -148 2
-165 28 -237 29 -84 79 -169 133 -230 19 -20 34 -40 34 -45 0 -10 -112 -277
-135 -322 -50 -98 -75 -96 -186 18 -137 141 -213 265 -280 459 -47 136 -64
242 -63 398 1 148 8 180 46 194 25 9 177 -11 291 -38z m8451 -57 c9 -3 21 -24
27 -47 l11 -40 -51 -47 -51 -47 0 -66 c0 -36 5 -69 10 -72 6 -3 10 -16 10 -28
0 -45 22 -98 47 -114 14 -10 50 -22 80 -28 l54 -11 42 -104 c53 -130 98 -202
193 -306 41 -45 74 -87 74 -93 0 -6 -11 -36 -25 -68 -47 -106 -77 -109 -175
-16 -236 222 -363 487 -389 811 -14 172 7 261 64 273 42 9 61 10 79 3z m-6486
-242 c82 -29 94 -43 95 -112 1 -57 -22 -97 -61 -105 -15 -3 -56 -14 -92 -25
-90 -27 -271 -78 -355 -101 -38 -10 -89 -24 -112 -31 -23 -6 -46 -8 -50 -4 -4
5 -2 11 5 13 6 3 12 15 12 27 0 28 18 46 47 46 19 0 23 5 23 31 0 25 5 32 31
41 25 9 30 15 26 35 -5 26 15 53 39 53 12 0 13 8 9 34 -6 30 -3 37 20 52 18
12 23 20 16 27 -18 18 -12 54 12 70 22 15 22 15 2 31 -17 13 -18 17 -6 25 10
6 54 -5 140 -36 69 -24 159 -57 199 -71z m8160 45 c15 -17 -4 -109 -25 -124
-51 -38 -86 4 -64 76 14 49 65 77 89 48z m55 -93 c-1 -52 -5 -71 -19 -81 -29
-21 -37 -1 -24 63 17 85 20 96 33 91 8 -3 11 -28 10 -73z m-1098 -206 c-4 -18
-12 -39 -17 -45 -15 -19 -67 -16 -75 4 -8 20 48 73 78 73 18 0 20 -4 14 -32z
m925 -32 c0 -14 -77 -96 -90 -96 -16 0 -11 49 7 76 25 40 83 53 83 20z m-8000
-4 c0 -29 -104 -232 -155 -302 -89 -123 -126 -151 -168 -128 -12 6 -63 49
-114 95 -89 82 -150 163 -138 183 3 6 21 10 40 10 19 0 37 5 40 10 3 6 17 10
30 10 13 0 39 6 57 14 18 8 62 22 98 31 36 10 79 22 95 29 17 6 34 10 38 8 11
-3 139 39 152 50 15 13 25 9 25 -10z m8060 -27 c19 -23 4 -60 -45 -111 -46
-48 -59 -51 -82 -17 -13 19 -10 26 39 82 56 64 68 70 88 46z m-1112 -17 c14
-14 16 -54 3 -62 -12 -8 -71 42 -71 60 0 17 51 19 68 2z m510 -85 c2 -8 -5
-13 -17 -13 -12 0 -21 6 -21 16 0 18 31 15 38 -3z m120 -5 c-7 -20 -48 -23
-48 -4 0 11 9 16 26 16 16 0 24 -5 22 -12z m-244 -19 c45 -21 41 -61 -9 -79
-25 -9 -105 17 -105 35 0 18 48 55 71 55 10 0 29 -5 43 -11z m354 -41 c23 -23
12 -37 -40 -53 -65 -19 -87 -19 -95 1 -8 21 17 44 58 54 50 12 64 11 77 -2z
m-8353 -186 c153 -130 190 -176 176 -216 -14 -41 -229 -134 -401 -173 -107
-24 -366 -24 -478 1 -102 22 -200 54 -271 90 l-53 28 5 45 c2 24 22 77 42 116
36 69 141 237 148 237 2 0 37 -11 78 -25 104 -36 202 -44 334 -30 83 9 126 19
175 42 41 19 71 27 80 22 8 -4 83 -66 165 -137z m7950 125 c63 -23 80 -50 35
-55 -31 -3 -104 38 -108 61 -4 21 -1 21 73 -6z m483 -10 c8 -41 -65 -77 -157
-77 -31 0 -43 5 -51 21 -7 11 -9 23 -6 27 10 9 169 50 191 48 11 0 21 -9 23
-19z m-558 -27 c40 -20 60 -40 40 -40 -15 0 -87 38 -95 50 -10 16 12 12 55
-10z m944 -273 c81 -76 66 -103 -109 -188 -192 -93 -354 -125 -589 -116 -167
6 -268 27 -392 78 -76 32 -104 57 -104 94 0 31 27 117 44 140 13 19 16 18 97
-19 46 -21 100 -46 119 -56 64 -33 187 -54 315 -54 178 0 320 36 470 118 44
25 85 45 91 45 6 1 32 -18 58 -42z"/>
</g>
</svg>
