<?xml version="1.0" standalone="no"?>
<!DOCTYPE svg PUBLIC "-//W3C//DTD SVG 20010904//EN"
 "http://www.w3.org/TR/2001/REC-SVG-20010904/DTD/svg10.dtd">
<svg version="1.0" xmlns="http://www.w3.org/2000/svg"
 width="294.000000pt" height="130.000000pt" viewBox="0 0 294.000000 130.000000"
 preserveAspectRatio="xMidYMid meet">

<g transform="translate(0.000000,130.000000) scale(0.100000,-0.100000)"
fill="#000000" stroke="none">
<path d="M520 984 c0 -17 8 -19 63 -19 75 -1 130 -27 193 -91 113 -117 111
-317 -6 -434 -42 -42 -104 -74 -140 -72 -21 1 -22 0 -6 -7 14 -5 16 -10 8 -15
-7 -4 -17 -4 -24 0 -7 4 -8 3 -4 -4 8 -13 36 -16 36 -4 0 4 23 18 51 30 129
60 204 204 178 345 -25 140 -121 240 -257 267 -26 5 -57 12 -69 16 -18 5 -23
2 -23 -12z m30 -4 c0 -5 -4 -10 -10 -10 -5 0 -10 5 -10 10 0 6 5 10 10 10 6 0
10 -4 10 -10z"/>
<path d="M426 960 c-62 -24 -136 -96 -166 -161 -26 -54 -23 -63 27 -74 29 -6
32 -4 42 28 15 45 66 101 116 126 56 29 153 29 211 -1 48 -24 50 -26 31 -52
-12 -17 -15 -17 -50 4 -55 32 -150 26 -202 -14 -78 -60 -98 -183 -42 -263 115
-167 375 -57 342 144 -5 26 -7 52 -6 57 1 4 -4 15 -10 22 -10 13 -15 12 -33
-4 -12 -11 -29 -22 -38 -25 -29 -10 -20 -22 18 -24 36 -2 63 -17 52 -29 -3 -3
-22 -1 -42 4 -29 9 -40 7 -58 -7 -27 -22 -18 -51 16 -51 21 0 26 -7 34 -47 8
-35 7 -51 -1 -62 -32 -39 -143 -54 -195 -27 -55 29 -102 101 -102 158 0 59 22
69 48 23 10 -17 11 -18 12 -3 0 10 10 20 24 24 13 3 34 17 47 30 12 13 29 24
38 24 12 0 12 3 3 12 -10 10 -17 10 -32 0 -11 -7 -20 -8 -20 -2 0 5 12 16 28
24 26 15 25 15 -28 10 l-55 -4 40 20 c52 27 124 22 167 -10 l31 -23 24 27 c30
35 29 40 -10 65 -123 76 -291 32 -357 -92 -24 -45 -51 -60 -65 -37 -12 19 36
99 85 143 26 24 67 49 89 57 23 7 44 17 47 22 8 12 -5 9 -60 -12z m288 -201
c-3 -5 -10 -7 -15 -3 -5 3 -7 10 -3 15 3 5 10 7 15 3 5 -3 7 -10 3 -15z"/>
<path d="M1030 936 c0 -7 9 -16 20 -19 17 -4 20 -15 22 -91 4 -116 22 -116 26
0 2 83 5 92 23 97 37 10 10 27 -42 27 -35 0 -49 -4 -49 -14z"/>
<path d="M1154 937 c-3 -8 -3 -56 -2 -108 l3 -94 39 0 c23 0 41 5 44 13 2 7
-6 12 -22 12 -23 0 -26 4 -26 35 0 28 4 35 20 35 11 0 20 7 20 15 0 8 -9 15
-20 15 -16 0 -20 7 -20 30 0 25 4 30 25 30 16 0 25 6 25 15 0 20 -78 21 -86 2z"/>
<path d="M1279 934 c-21 -26 -25 -149 -5 -179 20 -31 50 -32 70 -3 20 28 20
58 1 58 -8 0 -15 -9 -15 -19 0 -25 -15 -34 -28 -18 -11 13 -9 127 3 146 9 16
25 3 25 -20 0 -10 7 -19 15 -19 18 0 20 41 3 58 -17 17 -53 15 -69 -4z"/>
<path d="M1392 843 c2 -71 7 -108 15 -110 8 -3 13 12 15 43 4 65 26 70 30 7 2
-35 7 -48 18 -48 12 0 16 20 18 108 2 100 1 108 -15 105 -13 -2 -19 -14 -21
-46 -4 -56 -26 -51 -30 6 -2 29 -8 42 -18 42 -12 0 -14 -18 -12 -107z"/>
<path d="M1580 948 c-1 -2 -2 -49 -3 -105 -1 -71 1 -104 9 -107 19 -7 24 4 24
51 0 36 3 43 20 43 11 0 20 5 20 11 0 6 -9 13 -20 16 -14 4 -20 14 -20 34 0
24 4 29 25 29 16 0 25 6 25 15 0 11 -11 15 -40 15 -22 0 -40 -1 -40 -2z"/>
<path d="M1683 913 c-35 -84 2 -194 60 -179 54 13 65 176 14 208 -30 19 -58 8
-74 -29z m65 -53 c4 -59 -4 -100 -17 -100 -14 0 -24 75 -16 121 10 56 29 44
33 -21z"/>
<path d="M1822 843 c3 -110 20 -150 26 -60 4 57 19 62 28 7 6 -37 28 -69 40
-58 2 3 0 26 -6 52 -7 32 -7 53 0 66 5 10 10 33 10 50 0 33 -26 50 -76 50
l-25 0 3 -107z m66 54 c4 -21 -16 -49 -29 -41 -5 3 -9 19 -9 35 0 24 4 30 17
27 10 -2 19 -11 21 -21z"/>
<path d="M750 806 c0 -2 9 -23 20 -47 22 -50 25 -114 8 -171 -14 -48 -78 -122
-127 -148 -20 -10 -30 -19 -22 -20 28 0 90 44 123 89 59 78 69 166 31 264 -8
20 -19 37 -24 37 -5 0 -9 -2 -9 -4z"/>
<path d="M234 630 c4 -75 28 -130 84 -192 46 -51 142 -98 200 -98 l42 0 0 39
0 38 -50 7 c-83 11 -167 89 -190 177 -8 27 -8 45 0 58 7 14 7 22 0 26 -6 4 -9
1 -8 -6 2 -6 -3 -14 -11 -17 -10 -3 -12 0 -8 12 4 9 2 16 -3 16 -13 0 -13 -27
0 -35 6 -3 10 -17 10 -31 0 -92 127 -214 223 -214 12 0 17 -8 17 -30 0 -26 -4
-30 -27 -30 -40 0 -124 42 -171 85 -50 44 -78 101 -97 192 l-15 68 4 -65z"/>
<path d="M1073 655 c-47 -33 -37 -92 28 -162 33 -36 38 -46 29 -63 -14 -26
-24 -25 -47 5 -13 18 -22 22 -33 15 -13 -8 -13 -13 0 -37 44 -79 149 -29 126
60 -3 13 -24 43 -46 67 -25 27 -40 52 -38 64 4 27 28 32 35 7 3 -13 13 -21 28
-21 18 0 21 4 17 25 -5 27 -36 55 -62 55 -9 0 -25 -7 -37 -15z"/>
<path d="M1237 648 c-46 -46 -46 -209 -1 -255 61 -60 125 5 123 124 -2 103
-19 139 -66 149 -25 5 -37 1 -56 -18z m66 -59 c20 -77 -6 -211 -33 -169 -11
17 -14 169 -4 195 10 24 27 13 37 -26z"/>
<path d="M1437 659 c-29 -17 -47 -72 -47 -142 0 -100 24 -147 75 -147 27 0 65
46 65 80 0 23 -4 30 -20 30 -11 0 -20 -7 -20 -16 0 -8 -5 -25 -11 -36 -11 -21
-12 -21 -25 -3 -15 20 -19 118 -8 174 8 39 30 40 39 1 5 -21 13 -30 26 -30 26
0 26 53 -1 80 -22 22 -46 25 -73 9z"/>
<path d="M2058 663 c-30 -8 -48 -65 -48 -157 0 -80 2 -89 26 -112 19 -19 31
-24 47 -19 12 4 32 7 45 7 20 0 22 4 22 64 l0 64 -30 0 c-33 0 -39 -16 -18
-49 15 -24 3 -53 -19 -49 -16 3 -18 16 -18 108 0 85 3 105 15 105 8 0 18 -15
24 -32 6 -23 15 -33 29 -33 17 0 19 5 14 42 -8 57 -34 76 -89 61z"/>
<path d="M2224 660 c-13 -5 -27 -25 -34 -46 -16 -46 -9 -181 11 -212 28 -46
100 -37 119 14 15 40 12 181 -5 213 -20 40 -47 49 -91 31z m50 -46 c3 -9 6
-56 6 -104 0 -88 -10 -114 -33 -91 -13 13 -17 165 -5 194 9 21 24 22 32 1z"/>
<path d="M2397 648 c-46 -46 -44 -222 3 -260 61 -49 120 12 120 124 0 52 -12
111 -28 135 -4 7 -22 16 -39 19 -25 5 -37 1 -56 -18z m58 -129 c0 -86 -3 -104
-15 -104 -12 0 -16 18 -18 94 -3 102 1 125 21 118 8 -2 12 -33 12 -108z"/>
<path d="M480 639 c-9 -16 -8 -24 4 -38 9 -10 16 -29 16 -42 0 -14 7 -34 16
-45 8 -10 13 -14 10 -8 -6 12 19 70 35 79 17 11 9 30 -24 53 -41 27 -44 27
-57 1z"/>
<path d="M1570 520 c0 -133 1 -140 20 -140 22 0 20 -12 24 187 1 90 0 93 -21
93 -23 0 -23 -1 -23 -140z"/>
<path d="M1676 633 c-3 -16 -10 -64 -16 -108 -6 -44 -13 -95 -16 -112 -4 -28
-2 -33 14 -33 14 0 21 9 26 31 5 25 10 30 28 27 17 -2 24 -11 26 -30 3 -21 9
-28 26 -28 l22 0 -17 138 c-10 75 -18 138 -18 140 -1 1 -16 2 -35 2 -30 0 -35
-4 -40 -27z m47 -90 c6 -57 5 -63 -12 -63 -16 0 -18 6 -14 43 5 53 13 90 17
86 2 -2 6 -32 9 -66z"/>
<path d="M1810 520 l0 -140 54 0 c30 0 58 5 61 10 6 10 -1 14 -47 24 l-28 6 0
120 c0 113 -1 120 -20 120 -19 0 -20 -7 -20 -140z"/>
<path d="M2559 633 c-2 -16 -3 -79 -1 -140 l3 -113 44 0 c76 0 105 60 92 189
-7 69 -30 91 -92 91 -39 0 -43 -2 -46 -27z m85 -45 c9 -47 7 -127 -4 -149 -6
-10 -17 -19 -25 -19 -12 0 -15 19 -15 98 0 54 3 101 6 105 13 12 32 -6 38 -35z"/>
</g>
</svg>
